<svg width="134" height="37" viewBox="0 0 134 37" fill="none" xmlns="http://www.w3.org/2000/svg">
<path d="M116.9 8.6431L114.04 27.677C114.03 27.7468 114.033 27.8184 114.051 27.8865C114.07 27.9547 114.102 28.0178 114.145 28.0715C114.189 28.1251 114.243 28.1681 114.304 28.1972C114.365 28.2264 114.431 28.2411 114.498 28.2403H117.882C118.001 28.2413 118.117 28.1971 118.209 28.1155C118.3 28.0339 118.36 27.9204 118.38 27.7955L121.239 8.76165C121.25 8.69176 121.246 8.62023 121.228 8.55208C121.21 8.48393 121.178 8.4208 121.134 8.36713C121.091 8.31346 121.036 8.27055 120.975 8.24139C120.915 8.21223 120.848 8.19754 120.782 8.19834H117.397C117.278 8.19583 117.161 8.23958 117.069 8.32142C116.978 8.40327 116.918 8.51761 116.9 8.6431ZM113.286 14.1976H110.075C109.956 14.1964 109.84 14.2405 109.749 14.322C109.658 14.4035 109.597 14.5169 109.578 14.6416L109.472 15.3424C109.472 15.3424 106.978 12.4775 102.563 14.4136C100.029 15.5221 98.8134 17.8123 98.2959 19.4901C98.2959 19.4901 96.6537 24.5893 100.368 27.3961C100.368 27.3961 103.812 30.0955 107.69 27.2299L107.623 27.677C107.608 27.782 107.625 27.8895 107.673 27.983C107.72 28.0766 107.796 28.151 107.887 28.195C107.947 28.2252 108.014 28.2403 108.081 28.2403H111.294C111.414 28.2428 111.53 28.199 111.622 28.1172C111.713 28.0353 111.774 27.921 111.791 27.7955L113.746 14.7609C113.757 14.6911 113.753 14.6196 113.735 14.5516C113.716 14.4835 113.684 14.4207 113.64 14.3675C113.596 14.3134 113.542 14.27 113.481 14.2406C113.42 14.2111 113.353 14.1962 113.286 14.1969V14.1976ZM108.561 21.4013C108.436 22.312 108.001 23.143 107.339 23.7383C106.673 24.3359 105.827 24.6585 104.955 24.6467C104.613 24.6509 104.272 24.5985 103.945 24.4912C102.559 24.023 101.768 22.6231 101.995 21.1053C102.121 20.195 102.557 19.3647 103.219 18.7698C103.884 18.1719 104.73 17.8483 105.602 17.8584C105.944 17.8546 106.284 17.9076 106.611 18.0154C108.006 18.4806 108.794 19.8828 108.565 21.4021H108.561V21.4013ZM91.4149 21.7615C93.1562 21.7615 94.8404 21.1061 96.1633 19.9145C97.4835 18.727 98.3575 17.077 98.6266 15.2646C99.189 11.4944 96.3886 8.20363 92.4185 8.20363H86.0228C85.9034 8.20242 85.7876 8.24665 85.6964 8.32828C85.6053 8.4099 85.5448 8.5235 85.526 8.64839L82.6657 27.6822C82.6502 27.7873 82.6675 27.8948 82.7152 27.9883C82.7628 28.0819 82.838 28.1563 82.9294 28.2002C82.9907 28.2304 83.0563 28.2455 83.1233 28.2455H86.5096C86.629 28.2468 86.7448 28.2025 86.836 28.1209C86.9272 28.0393 86.9876 27.9257 87.0064 27.8008L87.8461 22.2115C87.8637 22.0859 87.924 21.9714 88.0155 21.8894C88.1071 21.8074 88.2237 21.7635 88.3436 21.766L91.4149 21.7615ZM94.2474 15.0932C94.0386 16.4871 93.0136 17.5133 91.0528 17.5133H88.546L89.3072 12.4443H91.7691C93.7962 12.4481 94.4563 13.7053 94.2474 15.097V15.0932Z" fill="#0070E0"/>
<path d="M78.8076 14.5206L74.9344 21.3958L72.9686 14.5711C72.9378 14.4622 72.8745 14.3669 72.7881 14.2995C72.7017 14.232 72.5969 14.1962 72.4896 14.1974H68.9942C68.9038 14.1961 68.816 14.2294 68.747 14.2913C68.6779 14.3532 68.6324 14.4395 68.6186 14.5341C68.6101 14.5969 68.6162 14.661 68.6364 14.7207L72.1589 26.2163L68.9728 31.6334C68.9458 31.678 68.9276 31.728 68.9194 31.7803C68.9113 31.8326 68.9132 31.8861 68.9252 31.9376C68.9373 31.989 68.959 32.0373 68.9893 32.0796C69.0195 32.1218 69.0576 32.157 69.1011 32.1831C69.1594 32.2186 69.2257 32.2369 69.2929 32.236H73.0577C73.1651 32.2364 73.2709 32.2074 73.3646 32.1519C73.4584 32.0963 73.5371 32.016 73.593 31.9189L83.432 14.803C83.4677 14.7434 83.4873 14.6746 83.4886 14.604C83.49 14.5335 83.4731 14.4639 83.4399 14.4028C83.4066 14.3414 83.3585 14.2907 83.3004 14.2557C83.2424 14.2208 83.1766 14.203 83.1098 14.2042H79.3464C79.2385 14.2031 79.1321 14.2317 79.0377 14.2872C78.9432 14.3426 78.864 14.423 78.8076 14.5206ZM67.0127 14.1974H63.7989C63.6793 14.1962 63.5633 14.2405 63.472 14.3222C63.3807 14.404 63.3201 14.5178 63.3014 14.6429L63.1973 15.3429C63.1973 15.3429 60.7012 12.478 56.2856 14.4141C53.7532 15.5226 52.5365 17.8128 52.0211 19.4906C52.0211 19.4906 50.3775 24.5898 54.091 27.3966C54.091 27.3966 57.5358 30.096 61.414 27.2304L61.347 27.6775C61.3312 27.7825 61.3485 27.8901 61.3961 27.9837C61.4438 28.0773 61.5192 28.1517 61.6107 28.1955C61.6713 28.2257 61.7376 28.2408 61.8046 28.2408H65.0177C65.137 28.2417 65.2527 28.1973 65.3438 28.1157C65.4349 28.0342 65.4955 27.9208 65.5145 27.796L67.4696 14.7614C67.4856 14.6563 67.4684 14.5485 67.4207 14.4547C67.373 14.361 67.2975 14.2865 67.2059 14.2427C67.1451 14.213 67.079 14.1976 67.012 14.1974H67.0127ZM62.2871 21.4026C62.1606 22.3121 61.7258 23.1418 61.064 23.7366C60.3991 24.334 59.553 24.6574 58.6812 24.6472C58.3397 24.6512 57.9996 24.5988 57.6734 24.4917C56.2878 24.0235 55.4973 22.6236 55.7247 21.105C55.8513 20.1928 56.288 19.3609 56.9528 18.7657C57.6201 18.1679 58.4689 17.8458 59.3427 17.8589C59.6848 17.8551 60.0262 17.9079 60.3527 18.0159C61.7333 18.4811 62.5195 19.8825 62.2914 21.4026H62.2878H62.2871ZM45.1415 21.762C46.8799 21.761 48.5613 21.1056 49.8857 19.9127C51.2046 18.7252 52.0777 17.0759 52.3462 15.2643C52.9092 11.4949 50.1081 8.20413 46.1394 8.20413H39.743C39.6237 8.20286 39.5079 8.24696 39.4166 8.32842C39.3253 8.40989 39.2646 8.52331 39.2455 8.64813L36.3945 27.6767C36.3785 27.7818 36.3957 27.8896 36.4434 27.9834C36.4911 28.0772 36.5665 28.1517 36.6582 28.1955C36.7188 28.2249 36.785 28.2408 36.852 28.2408H40.2363C40.3558 28.242 40.4718 28.1977 40.5631 28.1159C40.6544 28.0341 40.715 27.9203 40.7338 27.7953L41.572 22.206C41.5898 22.0805 41.6501 21.9662 41.7416 21.8843C41.8332 21.8025 41.9497 21.7587 42.0695 21.7612H45.1415V21.762ZM47.974 15.0929C47.7652 16.4868 46.741 17.513 44.7801 17.513H42.2733L43.0332 12.444H45.4951C47.5229 12.4478 48.1822 13.7058 47.974 15.0967V15.0929Z" fill="#003087"/>
<path d="M23.2638 9.18207C23.3401 4.97917 20.0678 1.75488 15.5681 1.75488H6.26082C6.04392 1.75477 5.83413 1.83672 5.66921 1.98596C5.5043 2.1352 5.3951 2.34192 5.3613 2.56888L1.63211 27.2554C1.61543 27.3673 1.62183 27.4817 1.65087 27.5907C1.67991 27.6997 1.7309 27.8007 1.80033 27.8868C1.86977 27.9729 1.956 28.0421 2.05308 28.0895C2.15016 28.1369 2.25579 28.1615 2.3627 28.1616H7.87666L7.01492 33.8777C6.99824 33.9895 7.00463 34.1039 7.03368 34.2129C7.06272 34.3219 7.11371 34.423 7.18314 34.5091C7.25258 34.5952 7.3388 34.6643 7.43589 34.7118C7.53297 34.7592 7.6386 34.7838 7.74551 34.7838H12.2374C12.454 34.7838 12.6472 34.7015 12.8126 34.5527C12.9765 34.4032 13.0036 34.1971 13.0378 33.9698L14.3564 25.7513C14.3899 25.5247 14.499 25.2303 14.6636 25.0807C14.8283 24.9312 14.9722 24.8497 15.1896 24.8497H17.9381C22.3451 24.8497 26.0836 21.531 26.7671 16.9158C27.2511 13.6402 25.9253 10.659 23.2638 9.18131V9.18207Z" fill="#001C64"/>
<path d="M9.06912 19.0571L7.69562 28.283L6.83317 34.0701C6.81659 34.1819 6.82309 34.2963 6.85223 34.4053C6.88136 34.5142 6.93244 34.6152 7.00194 34.7012C7.07144 34.7873 7.15771 34.8563 7.25482 34.9037C7.35193 34.951 7.45757 34.9755 7.56447 34.9754H12.3186C12.5353 34.9753 12.7448 34.8933 12.9095 34.7441C13.0741 34.5948 13.1831 34.3882 13.2167 34.1614L14.4697 25.7504C14.5035 25.5235 14.6126 25.3169 14.7774 25.1677C14.9421 25.0185 15.1518 24.9364 15.3685 24.9364H18.1669C22.5739 24.9364 26.3124 21.5308 26.9966 16.9157C27.4813 13.64 25.9246 10.6589 23.2631 9.18115C23.256 9.53001 23.2275 9.87811 23.1769 10.2232C22.4934 14.8369 18.7535 18.2431 14.3479 18.2431H9.96792C9.75108 18.2434 9.54145 18.3256 9.3767 18.4749C9.21194 18.6243 9.10288 18.831 9.06912 19.0579" fill="#0070E0"/>
<path d="M7.69591 28.2832H2.16484C2.05796 28.2831 1.95235 28.2586 1.85529 28.2111C1.75824 28.1637 1.67205 28.0945 1.60267 28.0084C1.53329 27.9223 1.48236 27.8212 1.45341 27.7122C1.42446 27.6032 1.41817 27.4889 1.43497 27.377L5.16416 2.32425C5.19794 2.09742 5.30703 1.8908 5.4718 1.74157C5.63656 1.59235 5.84619 1.51033 6.06296 1.51025H15.5684C20.0681 1.51025 23.3404 4.97919 23.2641 9.18134C22.1444 8.55913 20.8286 8.20348 19.3874 8.20348H11.4629C11.246 8.20337 11.0362 8.28532 10.8713 8.43455C10.7064 8.58379 10.5972 8.79051 10.5634 9.01748L9.07083 19.0573L7.69519 28.2832H7.69591Z" fill="#003087"/>
</svg>
